<?xml version="1.0" standalone="no"?>
<!DOCTYPE svg PUBLIC "-//W3C//DTD SVG 20010904//EN"
 "http://www.w3.org/TR/2001/REC-SVG-20010904/DTD/svg10.dtd">
<svg version="1.0" xmlns="http://www.w3.org/2000/svg"
 width="700.000000pt" height="700.000000pt" viewBox="0 0 700.000000 700.000000"
 preserveAspectRatio="xMidYMid meet">
<metadata>
Created by potrace 1.14, written by Peter Selinger 2001-2017
</metadata>
<g transform="translate(0.000000,700.000000) scale(0.100000,-0.100000)"
fill="#000000" stroke="none">
<path d="M3280 6994 c-19 -2 -84 -9 -145 -14 -639 -62 -1264 -315 -1795 -726
-149 -115 -481 -446 -595 -594 -410 -532 -653 -1132 -727 -1795 -17 -155 -17
-575 0 -730 75 -673 332 -1300 748 -1820 114 -143 339 -372 484 -494 537 -451
1163 -717 1885 -803 142 -17 586 -17 730 0 682 79 1268 318 1802 734 138 107
389 351 512 498 451 538 717 1162 803 1885 16 139 16 595 0 730 -77 629 -275
1158 -620 1649 -234 333 -577 668 -917 896 -460 308 -968 495 -1535 566 -117
15 -552 27 -630 18z m765 -2157 c7 -18 232 -622 499 -1342 266 -721 488 -1318
491 -1328 7 -16 -12 -17 -345 -15 l-352 3 -18 45 c-9 25 -47 134 -85 243 l-67
197 -551 -2 -550 -3 -85 -242 -85 -243 -354 0 c-195 0 -352 4 -349 8 3 6 969
2608 1001 2700 3 9 97 12 420 12 l416 0 14 -33z"/>
<path d="M3431 3689 c-101 -292 -181 -532 -179 -535 3 -2 169 -3 370 -2 l366
3 -182 527 c-99 290 -183 529 -186 532 -3 3 -88 -233 -189 -525z"/>
</g>
</svg>
